<svg xmlns="http://www.w3.org/2000/svg" viewBox="0 0 512 512"> <g transform="translate(0.000000,512.000000) scale(1.000000,-1.000000)" fill="#dff3ff" stroke="none"> <path d="M355 472 c-6 -3 -5 -12 1 -13 2 -1 5 -1 5 -1 0 -1 -1 -2 -1 -5 -2 -5 -1 -10 3 -14 4 -5 4 -69 -1 -72 -1 -1 -3 -4 -4 -6 -3 -6 -3 -6 -11 -6 -5 -1 -8 -1 -11 1 -3 1 -7 1 -12 1 -6 0 -7 0 -7 2 -1 3 -12 12 -16 14 -1 0 -3 2 -4 3 -4 13 -13 21 -24 21 -4 0 -7 1 -9 2 -1 1 -5 3 -8 4 -7 3 -8 5 -3 17 2 6 2 10 2 13 -1 3 -1 8 -1 12 -2 15 -9 22 -22 22 -15 0 -23 -8 -23 -22 0 -3 0 -7 -1 -8 -2 -3 0 -11 3 -14 2 -2 2 -4 2 -9 0 -7 0 -7 -8 -11 -4 -1 -8 -3 -10 -5 -2 -1 -4 -2 -6 -2 -11 0 -23 -9 -26 -19 -2 -3 -3 -5 -6 -8 -7 -5 -22 -33 -22 -41 0 -7 12 -24 27 -36 6 -5 11 -11 12 -12 2 -3 9 -7 12 -7 1 0 1 -1 1 -2 -1 -1 -1 -3 -2 -4 0 -3 -3 -9 -11 -24 -3 -5 -5 -10 -5 -11 0 -1 -1 -6 -2 -9 -2 -4 -4 -12 -5 -18 -4 -15 -8 -25 -15 -33 -8 -9 -13 -19 -18 -40 -3 -10 -5 -17 -5 -17 -4 -1 -10 -14 -8 -17 2 -1 2 -2 0 -4 -1 -1 -2 -4 -2 -6 -1 -2 -2 -6 -4 -9 -13 -21 -13 -23 -8 -27 4 -4 8 -6 10 -6 1 0 2 0 3 -1 1 -2 8 -1 9 1 2 2 5 10 5 15 1 3 2 6 2 8 1 2 2 4 2 6 0 2 1 4 2 6 1 1 2 4 2 6 0 2 1 4 3 4 1 0 2 1 2 2 1 2 6 1 9 -1 2 -2 4 -2 8 -2 2 1 7 1 9 1 4 0 5 0 6 2 0 1 0 1 26 -1 6 0 17 -1 25 -2 14 -1 14 -1 14 -12 -1 -6 -2 -14 -3 -18 -2 -10 1 -16 10 -16 3 0 4 -1 6 -3 5 -5 24 -7 31 -2 5 4 2 10 -7 15 -9 4 -16 15 -16 24 0 10 -1 9 18 8 8 -1 22 -2 29 -3 7 -1 18 -2 24 -2 6 -1 13 -1 16 -1 4 0 5 0 7 -2 3 -5 7 -7 10 -8 2 -1 3 -1 3 -5 0 -3 0 -3 -13 -4 -14 0 -14 -1 -14 -8 0 -4 1 -5 9 -9 9 -5 9 -5 25 -5 9 1 20 2 24 2 4 1 13 2 25 2 21 0 20 -1 20 9 0 4 0 5 -2 7 -3 3 -3 3 -3 206 l0 203 -25 0 c-13 0 -27 1 -29 2 -22 4 -25 4 -29 2z m23 -5 c15 -3 20 -3 36 -3 11 0 19 0 19 -1 0 -1 -46 -2 -58 -1 -12 1 -15 1 -18 1 -3 -1 -3 4 0 6 2 1 0 1 21 -2z m-136 -7 c5 -3 7 -9 7 -16 0 -4 1 -7 2 -8 1 -2 1 -6 -2 -11 0 -1 -1 -3 -1 -4 0 -3 -6 -14 -8 -15 -7 -4 -20 5 -22 14 0 2 -1 3 -2 4 -4 1 -7 12 -3 11 3 0 4 2 2 3 -2 1 -3 10 -1 14 4 10 19 14 28 8z m126 0 c2 0 6 -1 9 -2 8 0 9 -2 9 -10 0 -7 -3 -10 -9 -10 -7 0 -11 8 -8 19 1 3 1 3 -1 0 -5 -4 -4 -12 1 -17 3 -4 2 -4 -2 0 -4 4 -6 12 -3 16 3 2 2 4 -1 5 -3 1 -3 1 -1 1 2 0 4 -1 6 -2z m27 -202 c0 -159 0 -200 -1 -200 -1 0 -2 0 -2 -1 -1 0 -2 0 -2 0 -1 0 0 -1 2 -1 1 0 3 0 5 0 1 0 10 1 21 1 20 0 20 0 20 -5 1 -5 2 -5 -18 -5 -10 0 -21 -1 -26 -1 -19 -4 -34 -3 -34 0 0 3 0 3 13 3 15 0 26 1 27 2 1 0 -9 0 -20 0 -22 0 -28 1 -30 5 -2 2 15 1 16 -1 2 -2 9 -2 10 0 0 2 2 2 6 2 4 0 5 0 6 2 1 1 1 65 1 200 0 199 0 199 3 199 3 0 3 0 3 -200z m30 59 c0 -129 -1 -170 -2 -122 0 18 -1 19 -3 19 -1 0 -2 1 -2 3 0 1 -1 3 -3 3 -3 2 -3 5 0 9 8 9 4 23 -7 23 -3 0 -5 -1 -6 -2 -2 -2 -2 -11 -2 113 0 95 0 95 12 95 13 0 13 0 13 -141z m8 -59 c0 -199 -1 -199 -2 -199 -2 0 -3 0 -3 199 0 200 0 200 3 200 2 0 2 0 2 -200z m-49 140 c0 -21 0 -37 -1 -35 0 4 -2 5 -6 6 -5 1 -5 64 0 65 2 0 4 1 5 1 1 1 2 1 2 1 0 0 0 -17 0 -38z m-13 4 c0 -20 0 -32 -1 -32 -1 -1 -1 10 -1 31 0 21 0 33 1 33 1 0 1 -11 1 -32z m-143 1 c6 -3 11 -2 15 1 3 3 3 -1 0 -7 -3 -6 -3 -9 -2 -9 1 0 1 2 4 8 0 1 0 1 1 0 4 -6 4 -6 3 -1 0 4 0 5 1 5 3 0 13 -5 14 -7 1 -1 2 -1 5 0 11 1 21 -6 23 -17 1 -2 1 -3 -1 -4 -2 -1 -2 -1 2 -2 9 -1 19 -9 21 -17 0 -2 2 -4 3 -6 2 -2 2 -2 0 -2 -2 -1 -6 -5 -5 -5 1 0 3 1 6 2 5 2 5 2 3 3 -2 1 -3 3 -3 5 0 4 8 4 16 2 12 -5 24 -2 28 6 4 8 9 10 13 5 2 -1 3 -3 3 -3 0 -2 -4 -1 -5 0 -2 3 -5 1 -5 -4 0 -3 0 -5 -2 -7 -1 -2 -2 -3 -1 -3 1 0 1 -1 1 -3 0 -3 0 -3 -2 -3 -2 1 -8 -1 -18 -4 -18 -7 -30 -8 -35 -3 -2 1 -8 4 -14 7 -9 5 -16 10 -17 15 -1 3 2 11 5 13 4 3 4 4 -1 4 -5 0 -5 0 -5 -4 -3 -17 -13 -23 -30 -19 -6 2 -6 1 -1 -2 6 -4 16 -3 22 0 5 3 5 3 2 -5 -1 -4 -4 -9 -3 -4 1 1 1 3 0 4 -1 2 -1 2 -2 -2 -1 -2 -1 -5 -1 -5 0 -1 -1 -3 -2 -4 -1 -3 -1 -3 0 -2 3 2 3 -1 -3 -12 -2 -6 -2 -6 0 -4 2 2 2 2 2 -8 -1 -17 -5 -21 -28 -20 -13 0 -20 1 -23 5 -2 1 -5 3 -7 4 -3 1 -4 3 -4 14 0 9 1 11 3 7 1 -2 7 -6 8 -5 0 1 -3 4 -6 7 -7 8 -8 11 -2 8 2 0 3 -1 4 -1 1 1 -3 5 -4 5 -2 0 -3 0 -4 1 -1 1 -2 0 -2 -2 -1 -2 -1 -2 -4 4 -7 11 -9 18 -7 23 2 6 2 6 8 -2 10 -11 24 -13 38 -7 9 3 12 17 8 27 -2 3 -2 3 -2 -8 0 -16 -2 -18 -22 -18 -9 0 -11 1 -20 11 -7 8 -7 8 -5 10 2 3 1 3 -3 1 -2 -2 -6 -3 -8 -4 -3 -1 -3 -3 2 -3 3 0 3 0 -2 -8 -4 -8 -10 -15 -15 -18 -4 -2 -6 -1 -8 4 -1 2 -1 2 -1 0 0 -1 -1 -2 -2 -2 -2 0 -2 0 0 -2 4 -3 10 -13 13 -19 1 -6 1 -7 -2 -5 -5 3 -3 1 2 -3 2 -2 6 -6 9 -10 6 -6 6 -6 12 -6 8 1 16 -1 21 -6 6 -5 5 -7 -1 -3 -3 2 -11 6 -13 6 -1 0 2 -2 5 -4 4 -2 12 -9 12 -10 0 -2 -2 -1 -6 2 -4 4 -13 9 -13 8 -1 0 2 -2 5 -5 4 -2 8 -5 9 -6 3 -4 0 -3 -5 1 -5 4 -12 7 -12 5 0 0 3 -2 6 -4 9 -6 8 -8 -1 -3 -3 2 -7 3 -8 3 -3 0 -6 2 -15 10 -28 27 -36 37 -33 45 10 23 22 41 22 31 0 -3 3 -4 6 -2 3 1 3 1 0 2 -7 1 1 21 12 26 4 3 13 3 11 0 -3 -1 -3 -2 6 -1 8 1 8 1 3 3 -5 2 -5 2 4 7 11 5 10 5 11 -1 2 -7 3 -3 2 8 0 8 0 8 3 5 2 -2 5 -5 8 -7z m153 -48 c0 -1 -4 -3 -8 -3 -5 0 -4 3 2 4 5 2 6 2 6 -1z m-1 -6 c0 -1 -2 -1 -5 -1 -5 0 -7 2 -2 2 7 1 7 1 7 -1z m-86 -13 c4 -2 10 -5 13 -7 8 -5 23 -4 40 2 15 6 19 6 18 1 0 -2 0 -55 0 -117 0 -114 0 -114 -4 -116 -4 -3 -8 -8 -8 -13 0 -3 0 -3 -4 -3 -3 1 -21 2 -41 4 -50 4 -47 4 -47 6 1 2 2 10 4 19 4 22 4 24 3 33 -2 14 -1 30 3 42 2 4 3 11 4 17 1 6 2 11 3 12 1 1 1 3 1 6 -1 8 -3 29 -3 34 0 4 -4 20 -6 24 -1 1 -1 3 -1 4 0 2 -1 4 -2 5 -1 2 -1 3 0 6 1 2 1 8 1 14 0 9 0 10 4 19 2 4 4 11 5 14 1 5 1 5 6 1 2 -2 7 -5 11 -7z m90 -114 c0 -75 0 -126 -1 -126 0 0 -3 1 -5 3 -4 2 -4 2 -4 120 1 119 1 119 3 119 2 0 6 4 6 7 0 1 0 2 1 2 0 0 0 -56 0 -125z m-6 122 c0 -2 -6 -2 -7 0 0 1 1 1 4 1 2 0 3 -1 3 -1z m-193 -7 c2 -3 5 -9 7 -11 5 -9 7 -28 2 -28 -1 0 -3 0 -5 -1 -4 0 -14 10 -16 16 0 2 -2 7 -3 10 -3 7 -3 7 -1 9 1 1 5 4 8 7 2 2 5 5 5 5 0 0 1 -3 3 -7z m186 -118 c0 -78 0 -118 -1 -118 -1 0 -1 40 -1 118 0 77 0 117 1 117 1 0 1 -40 1 -117z m-106 64 c0 -1 1 -5 2 -8 4 -13 5 -18 4 -20 -1 -2 -1 -3 0 -6 1 -5 3 -28 2 -29 0 -1 -1 -1 -3 -1 -2 0 -9 -1 -17 -3 -19 -4 -22 -4 -23 1 -2 15 -1 16 11 14 4 -1 2 2 -3 3 -5 1 -4 2 4 6 15 8 18 10 13 10 -3 0 -9 -2 -8 -4 0 0 -1 -1 -3 -1 -1 -1 -4 -2 -6 -4 -7 -5 -9 -5 -15 -1 -7 5 -16 9 -19 9 -2 0 0 -2 9 -6 6 -3 11 -7 12 -7 0 -2 -10 -21 -11 -21 0 0 -3 2 -7 5 -8 6 -18 11 -26 13 -3 1 -6 1 -6 2 -1 0 10 19 13 21 1 2 2 3 1 3 -1 1 -1 1 1 3 2 1 3 3 1 3 -1 -1 -1 3 0 5 2 2 2 2 5 0 4 -2 8 -3 9 -1 0 1 1 1 3 1 2 0 3 1 4 2 0 0 1 1 1 1 2 0 3 3 2 5 -2 4 1 5 9 3 10 -2 24 -1 33 2 7 2 8 2 8 0z m149 -39 c2 -4 2 -8 0 -10 -1 -1 -1 0 -1 3 0 4 -1 6 -4 6 -4 0 -5 -2 -5 -7 0 -3 0 -5 -1 -4 -2 0 -1 9 1 12 2 6 7 6 10 0z m-3 -12 c0 -3 -3 -5 -4 -3 -2 3 -1 7 2 7 2 0 2 0 2 -4z m-226 -5 c6 -2 15 -7 19 -10 4 -4 4 -4 2 -8 -5 -6 -5 -5 -2 4 0 2 0 3 -1 3 -1 0 -1 -1 -1 -1 0 -1 -2 -6 -4 -12 -8 -19 -19 -30 -22 -22 -1 3 -1 3 -1 0 0 -1 -1 -4 -2 -6 -2 -3 -1 -4 2 -1 1 2 5 3 5 1 0 0 -5 -6 -11 -13 -10 -10 -13 -14 -16 -21 -6 -11 -4 -11 2 -1 5 11 12 18 11 12 -2 -7 -7 -18 -12 -23 -4 -5 -11 -14 -15 -21 0 -1 -11 3 -11 4 0 1 8 28 10 37 2 7 8 16 13 20 3 3 3 3 3 0 0 -3 0 -3 2 0 0 2 1 5 1 6 0 1 2 6 3 10 2 5 5 13 6 18 6 25 8 28 19 24z m216 0 c3 -1 2 -7 -1 -7 -1 0 -1 2 -1 4 0 2 0 4 1 4 0 0 1 0 1 -1z m9 -3 c0 -2 0 -3 -1 -4 -2 -1 -3 2 -3 4 1 3 4 3 4 0z m-184 -8 c0 -3 1 -7 2 -7 0 0 1 -4 2 -7 1 -4 2 -10 3 -14 1 -3 2 -9 2 -12 0 -3 1 -9 2 -12 2 -7 2 -7 -1 -16 -4 -15 -4 -19 2 -38 2 -8 2 -17 -1 -17 -1 0 -31 2 -49 4 -10 1 -13 2 -15 3 -1 2 -3 2 -5 2 -2 -1 -4 0 -5 1 -3 1 -10 1 -12 0 -1 -2 -5 -1 -5 0 1 1 0 2 -1 3 -1 2 2 7 12 20 7 7 10 14 13 25 2 7 3 9 7 13 8 9 16 20 20 26 7 10 15 20 17 19 2 0 4 2 7 8 4 7 4 7 5 -1z m188 0 c-1 -3 -11 -3 -11 0 0 2 1 2 6 2 4 0 5 0 5 -2z m-143 -5 c0 -14 -6 -33 -8 -26 -1 2 -3 3 -3 1 0 -1 1 -4 2 -6 1 -5 1 -16 -1 -21 -1 -4 -2 -12 -1 -9 1 2 3 3 3 1 0 -1 0 -5 1 -9 0 -7 -5 -41 -7 -50 -1 0 -3 0 -7 0 -6 1 -6 1 -7 10 0 5 -2 13 -3 18 -2 9 -2 17 1 28 1 4 1 4 4 1 3 -4 3 -1 -1 8 -4 8 -4 17 -3 33 1 7 1 7 -1 3 -2 -5 -3 -4 -5 8 -2 8 -2 8 3 8 3 0 11 1 18 3 7 2 14 3 14 3 1 0 1 -2 1 -4z m149 -3 c0 -3 0 -3 -10 -3 -10 0 -10 0 -11 3 0 3 0 3 11 3 10 0 10 0 10 -3z m0 -10 c0 -5 -20 -6 -21 0 0 4 0 4 11 4 10 0 10 0 10 -4z m0 -9 c0 -4 0 -4 -6 -5 -12 0 -15 0 -14 5 0 4 -2 4 10 4 10 0 10 0 10 -4z m0 -10 c0 -4 0 -4 -10 -4 -10 1 -10 1 -11 4 0 4 0 4 10 4 11 0 11 0 11 -4z m-10 -10 c0 -3 0 -3 -5 -3 -6 0 -6 0 -6 3 1 5 10 6 11 0z m15 0 c0 -3 0 -3 -6 -3 -7 0 -7 0 -6 4 0 5 11 5 12 -1z m-15 -6 c3 -2 0 -5 -5 -5 -5 0 -6 0 -6 3 0 3 0 3 5 3 3 -1 5 -1 6 -1z m12 0 c6 -1 4 -6 -3 -6 -6 0 -6 1 -6 3 0 2 1 3 2 3 1 1 3 1 3 1 0 0 2 0 4 -1z m3 -10 c-1 -5 -11 -5 -12 -1 0 3 -3 3 -3 0 0 -2 -1 -2 -5 -2 -6 0 -6 0 -6 3 0 3 0 3 13 3 13 0 13 0 13 -3z m0 -8 c-1 -5 -12 -6 -12 -1 0 4 -2 4 -3 0 -1 -5 -10 -3 -11 1 0 3 0 3 13 3 13 0 13 0 13 -3z m-15 -7 c0 -4 -1 -5 -6 -4 -4 0 -5 1 -5 3 0 3 0 3 6 3 5 0 5 -1 5 -2z m15 -1 c0 -3 -1 -3 -6 -3 -5 0 -6 0 -6 3 0 3 0 3 6 3 6 0 6 0 6 -3z m-14 -6 c0 0 0 -2 -1 -4 0 -2 0 -3 0 -4 2 -2 0 -3 -5 -3 -5 1 -5 1 -5 6 0 6 0 6 5 6 3 0 6 0 6 -1z m14 -5 c0 -6 0 -6 -5 -6 -4 0 -4 0 0 -1 4 0 5 -1 5 -3 0 -3 -1 -3 -6 -3 -5 0 -5 0 -6 9 0 10 0 10 6 10 6 0 6 0 6 -6z m-15 -10 c0 -2 0 -3 -2 -3 -1 0 -3 0 -4 -1 -3 0 -5 2 -5 5 0 2 0 2 6 2 5 0 5 0 5 -3z m0 -6 c3 -3 0 -6 -5 -6 -5 0 -7 3 -5 6 0 1 10 1 10 0z m15 -3 c0 -3 0 -3 -6 -3 -6 0 -6 0 -6 3 0 4 1 4 6 4 5 0 6 -1 6 -4z m-292 -1 c4 -1 8 -2 9 -2 1 0 1 -1 0 -2 0 -1 -1 -3 -1 -5 -1 -4 -3 -4 -11 -1 -12 4 -11 3 -9 9 1 4 2 5 3 4 1 0 5 -1 9 -3z m277 -5 c0 0 0 -1 0 -2 1 -3 1 -3 -5 -3 -6 1 -7 2 -6 6 1 1 9 1 11 -1z m13 1 c2 0 2 -1 2 -3 -1 -5 -11 -5 -12 0 0 4 4 5 10 3z m-260 -2 c0 -1 -1 -1 -4 -1 -2 0 -4 0 -4 0 0 -1 0 -2 -1 -2 0 -2 1 -2 4 -2 3 0 4 0 4 -1 -1 -2 -8 -1 -10 1 -1 0 -3 1 -5 1 -2 0 -3 0 -3 2 0 1 1 1 4 1 2 0 4 0 4 1 1 1 10 1 11 0z m9 -3 c0 -1 -2 -5 -4 -4 -1 1 -1 4 0 5 1 2 3 1 4 -1z m197 0 c-6 -2 -9 -6 -10 -11 -1 -5 -4 -4 -3 1 1 6 8 12 14 12 2 0 2 0 -1 -2z m-240 -4 c4 -1 6 -6 3 -9 -1 -1 -2 -4 -3 -6 0 -3 -2 -7 -2 -9 -1 -3 -2 -6 -2 -7 0 -7 -3 -14 -6 -14 -3 0 -4 2 -2 5 2 4 0 4 -2 0 -3 -5 -6 -3 -4 2 1 3 1 3 -1 0 -3 -3 -4 -3 -4 1 1 2 1 2 0 1 -5 -4 -3 1 6 18 4 5 6 10 6 12 0 3 4 8 6 8 0 -1 3 -1 5 -2z m250 1 c0 -1 1 -1 3 -1 2 1 2 1 2 -9 0 -7 0 -10 -1 -9 -1 0 -3 -1 -6 -2 -12 -6 -21 9 -12 19 4 3 12 5 14 2z m30 -1 c2 0 2 -6 0 -7 -1 -1 -1 -1 0 -2 1 -1 1 -2 1 -4 0 -4 0 -4 -5 -4 -5 0 -6 0 -6 6 0 3 0 3 3 3 4 0 4 0 1 1 -8 4 -3 10 6 7z m16 -3 c0 -4 0 -4 -6 -4 -6 0 -6 0 -6 3 0 4 0 4 5 4 3 0 6 1 6 1 1 0 1 -2 1 -4z m-170 -3 c0 0 1 -4 1 -10 0 -9 0 -9 6 -17 4 -5 8 -8 12 -10 7 -4 9 -7 5 -8 -1 0 -2 0 -3 0 0 -1 -2 -1 -2 0 -1 0 -3 0 -4 -1 -2 -2 -12 1 -16 4 -2 2 -4 3 -7 4 -6 1 -7 2 -7 7 1 6 2 8 3 6 2 -3 2 0 1 4 -1 1 -1 4 -1 5 1 1 1 3 2 4 0 2 0 2 -1 2 -1 -1 -1 7 0 9 0 2 8 3 11 1z m170 -7 c0 -4 0 -4 -6 -4 -6 0 -6 0 -6 4 0 4 0 4 6 4 6 0 6 0 6 -4z m-64 -4 c1 -2 1 -2 0 -2 -1 0 -2 2 -3 3 -1 2 -1 2 0 2 1 0 2 -2 3 -3z m23 -9 c0 -6 0 -6 -5 -6 -5 0 -5 0 -5 4 0 3 0 4 2 4 1 0 3 1 5 2 1 1 3 2 3 2 0 0 0 -3 0 -6z m28 4 c0 -1 -2 -2 -3 -3 -2 -1 -2 -1 0 -1 3 -1 2 -6 -1 -7 -2 0 -3 0 -3 6 0 7 0 7 4 7 2 0 3 0 3 -2z m13 -4 c0 -6 0 -6 -6 -6 -9 1 -8 12 2 12 4 0 4 0 4 -6z m-23 0 c0 -7 -2 -7 -2 -1 0 4 0 6 1 6 1 0 1 -2 1 -5z m-30 -4 c0 -5 0 -6 -1 -6 -2 0 -2 1 -2 6 0 4 0 5 2 5 1 0 1 -1 1 -5z m-16 -16 c0 -2 0 -2 -5 1 -6 3 -7 4 -7 6 1 3 12 -3 12 -7z M374 451 c-2 -2 -1 -4 2 -6 3 -2 5 0 5 4 -1 3 -5 4 -7 2z M227 396 c0 0 0 -2 1 -4 1 -3 5 -6 5 -4 0 1 -6 9 -6 8z M250 389 c-4 -1 -9 -5 -8 -5 0 -1 4 0 9 1 7 2 9 2 13 1 6 -1 6 0 1 2 -5 2 -10 2 -15 1z M209 387 c-3 -3 -2 -3 1 -2 4 1 13 0 20 -2 6 -1 7 0 2 3 -6 3 -21 4 -23 1z M287 354 c2 -4 12 -10 17 -10 1 0 -1 1 -4 3 -3 2 -7 4 -9 6 -4 3 -5 4 -4 1z M351 345 c-3 -1 -5 -1 -5 -2 -1 -1 9 1 10 2 2 1 0 1 -5 0z M200 342 c-3 -2 -2 -5 1 -7 2 -2 9 -3 9 -1 0 2 -2 3 -4 3 -1 -1 -2 0 -4 1 -3 3 -3 4 0 4 1 0 2 0 3 1 1 2 -4 1 -5 -1z M232 339 c-4 -2 -10 -8 -9 -8 0 -1 3 0 6 2 2 2 6 4 7 4 3 1 4 2 1 3 -1 1 -1 1 -5 -1z M246 339 c-2 -2 -2 -2 1 -2 1 0 4 -1 6 -2 4 -3 5 -3 2 1 -3 4 -6 5 -9 3z M242 332 c-1 -4 -1 -6 0 -6 1 0 2 6 1 8 -1 1 -1 1 -1 -2z M146 326 c0 -2 5 -7 6 -6 0 1 -1 3 -3 4 -2 2 -3 3 -3 2z M229 322 c-2 0 -5 -1 -6 0 -2 0 -3 -1 0 -3 2 -2 15 1 15 3 -1 2 -4 2 -9 0z M245 322 c0 -3 8 -5 10 -2 3 2 2 2 -1 3 -2 0 -5 0 -6 0 -3 1 -3 1 -3 -1z M222 307 c0 -4 11 -6 14 -2 1 1 0 1 -5 1 -4 0 -7 1 -8 1 -1 1 -1 1 -1 0z M248 306 c-4 0 -5 0 -4 -2 2 -1 6 -1 8 1 2 1 1 2 -4 1z M251 275 c-8 -1 -16 -1 -25 0 -4 1 -7 1 -8 1 -1 -1 7 -4 13 -5 3 0 6 -1 6 -1 0 -1 -23 -6 -26 -6 -5 0 -1 -2 10 -5 6 -2 12 -4 13 -4 1 0 2 -1 3 -2 0 -1 1 -1 1 0 0 1 2 1 7 1 9 0 10 2 1 2 -9 1 -9 1 -18 4 -8 2 -10 4 -5 4 3 0 16 4 16 5 0 0 2 1 5 1 3 1 7 2 11 4 6 3 6 3 -4 1z M172 194 c-5 -2 -7 -5 -3 -3 5 1 7 2 8 4 1 2 0 2 -5 -1z M162 182 c-1 -1 -2 -3 -2 -4 0 -2 0 -2 2 1 2 5 2 6 0 3z M253 174 c-3 -2 -6 -3 -8 -1 -1 1 -1 1 -1 0 0 -1 1 -3 3 -3 2 -2 3 -3 3 -5 0 -2 0 -3 1 -2 1 0 1 1 1 3 0 1 1 4 2 6 3 4 2 5 -1 2z M247 125 c0 -6 1 -10 1 -10 1 0 1 5 1 10 0 6 0 10 -1 10 0 0 -1 -5 -1 -10z M369 85 c-1 -2 -1 -2 1 -4 2 -3 5 -2 6 2 1 5 -5 7 -7 2z"/> </g> </svg> 