<svg xmlns="http://www.w3.org/2000/svg" viewBox="0 0 512 512"> <g transform="translate(0.000000,512.000000) scale(1.000000,-1.000000)" fill="#dff3ff" stroke="none"> <path d="M413 398 c-13 -3 -24 -14 -27 -28 -3 -10 -6 -12 -17 -10 -30 3 -53 -2 -71 -16 -14 -10 -29 -15 -40 -13 -19 5 -38 0 -50 -12 -14 -14 -16 -25 -12 -59 1 -5 1 -15 2 -22 0 -12 1 -14 2 -16 2 -1 8 -23 8 -24 0 0 -3 1 -7 2 -4 2 -8 2 -18 3 -20 0 -34 5 -34 11 0 23 -30 22 -43 -2 -1 -3 -4 -7 -6 -9 -14 -12 -18 -18 -19 -29 -1 -15 11 -20 27 -11 8 5 17 8 20 7 1 -1 9 -1 20 -1 18 0 18 0 25 -4 9 -5 18 -9 30 -12 5 -1 12 -3 16 -4 12 -4 19 -3 27 2 4 3 5 3 9 2 14 -3 25 2 30 15 7 15 11 52 8 74 -1 10 0 15 3 16 3 1 4 0 7 -16 2 -8 2 -11 1 -13 -1 -2 -1 -5 0 -9 0 -4 0 -11 0 -16 0 -14 1 -25 7 -48 3 -11 5 -22 6 -24 1 -7 6 -11 14 -13 4 -1 9 -2 13 -3 3 -1 8 -2 13 -2 3 0 8 0 10 0 13 0 21 6 14 12 -9 8 -11 9 -24 13 -16 3 -17 4 -18 6 -2 4 -2 32 0 42 2 11 2 29 0 35 -2 4 -1 5 1 10 2 5 4 14 5 23 1 4 2 6 3 7 1 0 5 2 8 3 7 3 8 3 14 2 8 -1 14 0 22 4 3 1 5 2 5 2 1 0 1 -5 2 -10 1 -6 3 -14 5 -17 2 -7 2 -9 3 -22 0 -16 1 -24 6 -37 4 -14 6 -27 4 -34 -1 -4 0 -8 4 -10 2 0 4 -2 7 -3 5 -2 9 -2 12 0 2 2 2 2 11 -1 7 -2 9 -2 11 -1 2 0 4 1 6 0 4 -1 9 5 7 9 -2 3 -12 9 -21 11 -12 3 -14 4 -15 10 -1 6 1 24 3 34 2 11 2 30 -1 37 -2 5 -2 8 -2 19 0 11 0 14 -2 19 -2 6 -2 7 -1 12 3 9 2 17 0 24 -2 6 -2 6 1 9 1 1 4 4 5 7 2 2 5 6 7 8 19 28 -4 68 -36 61z m21 -6 c11 -6 19 -20 19 -32 0 -2 -1 1 -2 5 -6 31 -44 39 -58 12 -1 -2 -2 -3 -2 -3 0 3 7 12 12 16 8 6 21 7 31 2z m-3 -5 c7 -3 13 -10 15 -17 4 -10 0 -28 -6 -31 -1 -1 -3 -4 -5 -7 -4 -7 -18 -21 -22 -21 -6 0 -18 18 -18 29 0 8 -2 9 -4 1 -1 -4 -1 -4 -1 -1 0 6 -3 2 -3 -4 0 -4 3 -10 7 -15 4 -4 4 -4 0 -5 -4 -1 -9 -6 -8 -7 0 -1 1 -1 1 0 1 0 4 2 8 3 6 2 6 2 11 -2 7 -7 11 -7 18 0 7 5 7 5 8 0 2 -6 1 -15 -1 -24 -4 -10 -4 -13 -1 -11 3 3 4 -3 4 -20 0 -8 0 -15 1 -15 4 0 5 -20 2 -37 -4 -17 -4 -44 0 -45 11 -2 18 -5 16 -5 -3 -1 -3 -1 -1 -2 11 -5 16 -7 16 -8 -1 0 -5 2 -10 4 -12 5 -14 5 -14 4 0 -1 4 -3 8 -5 9 -4 7 -5 -5 -1 -4 1 -9 4 -12 6 -5 3 -7 4 -7 1 0 -1 1 -3 5 -5 6 -4 3 -5 -5 -2 -8 3 -9 6 -4 10 3 3 4 4 1 4 -1 -1 -2 0 -2 0 0 7 -3 20 -6 30 -5 16 -7 34 -5 44 0 3 0 3 5 -3 5 -4 6 -6 5 -7 -1 -5 2 -4 5 3 4 8 4 11 0 6 -7 -7 -15 8 -16 30 0 6 0 11 0 11 0 4 -2 -6 -3 -13 -1 -10 -1 -10 -2 -3 -4 15 -4 19 1 23 3 3 4 4 7 4 4 0 5 1 2 3 -2 0 -2 1 -2 2 3 8 2 9 -3 2 -9 -11 -23 -19 -36 -19 -8 0 -10 1 -7 3 3 2 8 9 8 11 0 1 -2 -1 -6 -4 -7 -6 -14 -10 -20 -10 -7 -1 -8 8 -2 15 8 9 11 22 8 30 -3 5 -4 4 -3 -3 0 -11 -3 -19 -15 -31 -5 -6 -5 -7 0 -5 5 2 3 -33 -3 -43 -1 -3 -1 -3 -3 -1 -3 3 -3 0 0 -7 4 -14 5 -26 0 -45 -2 -7 -2 -10 -1 -11 0 -2 1 -8 1 -15 1 -6 1 -13 2 -13 0 -1 -2 -3 -5 -4 -6 -4 -4 -5 3 -2 10 3 38 -6 46 -14 2 -2 1 -1 -6 3 -4 3 -15 7 -18 7 -3 0 0 -2 4 -4 7 -2 17 -8 17 -9 0 -1 -5 1 -11 4 -12 6 -17 8 -17 6 0 -1 4 -3 9 -5 9 -5 13 -7 10 -7 -1 0 -6 2 -12 5 -15 7 -20 7 -7 0 8 -5 7 -6 -2 -3 -3 2 -9 3 -11 3 -11 2 -11 3 -17 28 -8 34 -10 55 -6 53 1 0 1 0 -1 9 -2 5 -2 9 -1 12 1 7 0 13 -3 29 -4 17 -5 21 -3 31 2 8 3 10 5 7 3 -2 3 0 0 6 -5 12 -4 25 5 35 6 8 3 7 -5 0 -7 -6 -10 -19 -7 -29 2 -10 -2 -12 -12 -7 -4 2 -6 4 -8 7 -4 6 -5 6 -5 2 0 -7 8 -14 17 -17 4 -1 4 -1 4 -13 1 -13 1 -13 -7 -14 -11 -2 -19 1 -26 9 -14 15 -15 43 -1 53 4 3 7 3 5 0 -5 -5 -2 -5 3 0 3 2 14 8 16 8 0 0 0 -1 -1 -3 0 -3 0 -2 8 5 16 16 43 25 61 20 3 -1 9 -2 13 -3 7 -1 7 -1 5 -5 -2 -5 0 -4 6 3 6 7 7 8 7 5 0 -2 2 -4 3 -4 0 0 1 2 1 5 0 9 5 13 8 7 0 -3 2 -3 2 0 0 3 -3 6 -5 6 -3 0 -2 3 2 9 7 12 22 16 34 10z m-55 -33 c-2 -1 -5 -1 -7 0 -3 1 -3 1 3 1 5 0 6 -1 4 -1z m66 -19 c-1 -2 -3 -5 -4 -6 -1 -1 -1 -1 0 2 2 3 5 7 6 7 1 0 0 -2 -2 -3z m-188 -8 c1 0 0 -2 -2 -3 -5 -5 -9 -18 -7 -30 3 -27 21 -43 39 -38 4 1 4 1 3 -5 -1 -5 -1 -6 0 -8 1 -1 2 -6 2 -16 0 -17 0 -18 -16 -18 -9 0 -12 1 -11 5 1 4 -1 28 -3 35 -1 5 -2 9 -1 10 0 1 -2 3 -4 6 -16 16 -19 43 -8 57 4 5 4 5 1 5 -1 -1 -6 -1 -10 -1 -7 -1 -16 -3 -15 -5 1 0 3 0 5 1 5 1 14 1 14 0 -7 -13 -8 -29 -1 -43 3 -6 3 -6 0 -4 -6 3 -10 5 -11 5 0 -1 0 -1 0 -1 0 -1 3 -3 7 -5 10 -8 15 -14 17 -21 2 -9 3 -14 2 -14 -1 1 -1 2 -1 2 0 2 -4 8 -6 8 -1 0 0 -1 1 -4 10 -23 10 -24 -11 -23 -13 0 -19 1 -29 8 -6 3 -6 3 -6 14 -1 7 -1 11 0 11 1 0 0 3 -1 8 -9 29 3 57 29 63 6 2 23 3 23 1z m-45 -102 c13 -8 33 -11 45 -6 3 1 3 1 3 -9 0 -13 -1 -17 -7 -44 -3 -13 -15 -17 -36 -11 -23 7 -26 8 -42 17 -18 10 -30 14 -35 13 -4 0 -6 2 -8 6 0 3 0 3 2 3 2 -2 12 -3 14 -3 2 1 -5 4 -10 5 -4 0 -5 1 -6 2 -1 5 -3 0 -3 -6 0 -4 3 -9 6 -11 4 -1 4 -1 -1 -1 -5 1 -11 -1 -26 -9 -9 -5 -10 -5 -13 -4 -7 3 -3 17 9 27 5 4 8 7 11 12 7 12 13 17 21 17 7 0 13 -11 6 -12 -3 -1 -6 -3 -4 -4 0 -1 2 0 4 0 3 1 5 1 10 -1 8 -3 7 -4 -2 -1 -5 1 -7 1 -11 0 -6 -2 -5 -3 1 -3 3 0 10 -1 16 -2 9 -3 13 -3 26 -3 21 0 32 -3 32 -11 0 -4 1 -8 2 -8 1 0 1 1 1 2 0 2 2 3 2 1 0 -1 1 -3 2 -4 3 -4 3 0 -3 17 -3 8 -5 18 -6 22 -1 6 -2 7 -4 9 -2 1 -3 3 -2 3 1 0 3 -1 6 -3z m79 -26 c-3 -30 -11 -43 -28 -42 -6 1 -7 2 -6 6 2 5 6 23 7 33 2 9 2 9 12 9 6 0 11 0 13 1 1 0 2 1 2 1 0 0 0 -4 0 -8z m-182 3 c-1 0 -4 -3 -8 -6 -7 -6 -6 -4 2 3 6 4 6 5 6 3z m47 -26 c7 -3 7 -3 -8 -3 -13 0 -15 0 -15 2 0 0 1 1 3 1 1 0 4 1 6 2 3 2 6 2 14 -2z m-59 -13 c1 0 4 0 6 1 2 1 2 1 1 0 -4 -4 -16 -1 -16 4 0 1 1 0 3 -2 2 -2 3 -3 6 -3z m369 -13 c3 -1 5 -2 5 -3 0 0 -2 1 -5 2 -2 2 -5 3 -6 3 -1 1 -1 1 0 1 0 0 3 -1 6 -3z M360 335 c-4 -2 -6 -4 -5 -4 1 -2 12 4 12 6 0 2 -1 1 -7 -2z M337 334 c0 -1 1 -3 2 -5 1 -3 2 -5 2 -6 2 -4 3 -1 3 3 -1 5 -7 11 -7 8z M355 325 c0 -2 8 -9 9 -9 3 0 2 2 -3 6 -4 4 -6 5 -6 3z M381 321 c-1 -6 -1 -14 0 -14 1 0 3 7 3 13 0 6 -1 7 -3 1z M387 305 c-4 -3 -7 -8 -7 -9 1 -1 13 9 13 10 0 2 -3 1 -6 -1z M288 282 c-1 0 -1 -2 -1 -3 0 -1 -1 -2 -6 -2 -3 0 -7 0 -9 -1 -4 -2 -5 -5 -2 -4 8 3 17 3 20 2 4 -3 5 -2 1 4 -3 7 -3 7 -3 4z M308 275 c-1 -2 1 -7 5 -12 4 -4 5 -5 5 -12 0 -8 1 -10 2 -5 1 1 1 3 2 4 1 6 -1 11 -6 16 -2 3 -5 7 -6 8 -1 1 -2 2 -2 1z M282 265 c-2 -1 -1 -2 3 -2 4 0 7 1 7 2 0 1 -8 1 -10 0z M313 227 c1 -2 1 -7 1 -12 0 -9 1 -14 2 -9 0 1 1 4 1 7 0 3 0 4 2 5 2 0 2 1 -1 7 -4 7 -6 8 -5 2z M231 303 c-1 -3 2 -13 3 -12 1 0 0 11 -1 12 -1 1 -1 1 -2 0z M208 297 c2 -4 15 -12 16 -10 1 1 -2 4 -9 8 -6 5 -9 5 -7 2z M274 253 c-12 -3 -13 -4 -5 -4 7 0 15 3 16 5 0 1 1 1 -11 -1z M277 245 c-3 -2 -7 -5 -8 -6 -2 -1 -1 -2 3 -1 6 2 15 10 12 11 0 1 -3 -1 -7 -4z M253 210 c-1 -1 -1 -5 -1 -9 -1 -4 -1 -10 -2 -12 0 -6 1 -7 3 -2 2 5 2 19 1 22 -1 2 -1 2 -1 1z M188 175 c4 -4 12 -7 16 -7 3 1 3 1 2 1 -2 1 -6 3 -11 5 -10 5 -10 5 -7 1z M244 169 c-5 -6 -6 -9 -2 -6 4 2 10 13 7 13 0 0 -3 -3 -5 -7z M213 168 c0 -5 5 -9 9 -9 3 0 3 0 2 1 -2 1 -4 3 -7 6 -4 4 -4 4 -4 2z M283 196 c0 -4 -4 -19 -6 -23 -2 -6 -2 -7 1 -4 5 4 9 25 6 27 0 1 -1 1 -1 0z"/> </g> </svg> 