<svg xmlns="http://www.w3.org/2000/svg" viewBox="0 0 512 512"> <g transform="translate(0.000000,512.000000) scale(1.000000,-1.000000)" fill="#dff3ff" stroke="none"> <path d="M333 475 c-3 -1 -6 -3 -8 -4 -3 -2 -3 -2 -8 1 -11 5 -29 0 -38 -11 -7 -8 -6 -29 3 -46 4 -8 4 -8 1 -10 -7 -5 -12 -7 -8 -3 2 3 -1 5 -15 10 -9 4 -10 5 -12 7 -3 10 -14 11 -22 3 -13 -15 -38 -84 -46 -128 -3 -15 -2 -14 -8 -15 -3 -1 -6 -3 -6 -3 -1 -1 -4 -2 -7 -3 -11 -2 -25 -10 -35 -19 -5 -4 -11 -9 -13 -11 -10 -7 -13 -13 -11 -27 1 -5 2 -12 2 -14 0 -2 1 -8 2 -13 8 -34 10 -49 8 -56 -2 -5 -21 -23 -28 -26 -4 -2 -9 -5 -12 -8 -5 -5 -5 -5 -2 -9 6 -6 34 -5 43 1 7 5 7 5 17 5 13 0 14 0 20 5 6 5 6 15 -1 31 -6 12 -7 20 -7 43 0 10 -1 18 -2 23 -2 14 0 17 20 18 10 0 12 1 12 6 0 1 -15 -1 -26 -4 -13 -3 -15 -4 -13 -11 4 -14 5 -23 5 -40 0 -21 2 -30 9 -49 5 -13 1 -18 -14 -17 -13 0 -16 -1 -23 -5 -6 -4 -7 -4 -16 -5 -6 0 -11 0 -11 -1 -1 0 -3 0 -4 1 -7 1 -1 8 9 12 5 2 7 4 13 11 3 5 8 10 10 12 9 7 10 17 5 30 -2 6 -3 11 -4 19 -1 9 -2 13 -4 18 -2 4 -3 9 -3 15 -1 4 -2 10 -2 13 -1 7 0 9 15 24 12 13 13 14 22 17 19 9 39 11 44 5 11 -11 13 -28 5 -33 -2 -1 -6 -5 -9 -9 -2 -4 -7 -10 -9 -12 -7 -7 -8 -9 -9 -34 0 -12 -1 -25 -2 -28 -1 -4 -1 -11 -1 -19 1 -21 -1 -36 -6 -43 -3 -3 -7 -9 -11 -14 -3 -5 -9 -11 -12 -13 -17 -14 -14 -21 10 -25 15 -2 22 2 48 27 3 3 4 10 2 22 -2 11 -2 12 0 21 2 9 7 24 8 24 1 0 6 -2 12 -5 46 -21 66 -25 71 -15 2 3 1 3 -4 1 -9 -4 -21 -1 -52 13 -22 10 -23 11 -26 9 -1 -2 -1 -2 0 7 4 15 2 27 -4 30 0 0 3 7 4 7 0 0 4 2 7 5 5 3 9 5 14 6 6 2 13 5 20 10 4 2 5 2 6 1 1 0 4 -1 6 -1 9 0 22 -2 21 -4 0 -1 -2 -6 -4 -11 -3 -9 -3 -9 -4 -5 -1 5 -1 5 -1 -2 1 -5 0 -8 -2 -13 -2 -7 -3 -14 -2 -14 0 0 1 1 1 3 1 1 3 5 4 8 5 8 8 17 11 27 2 9 2 9 9 9 6 0 7 0 6 -2 -2 -6 -12 -41 -12 -42 2 -1 13 31 15 40 0 3 1 5 4 8 4 5 6 9 7 15 0 3 1 6 1 6 1 1 1 1 0 3 -1 2 -3 2 -2 0 0 -2 0 -2 -4 2 -3 2 -5 4 -5 4 0 0 3 0 7 -1 7 0 11 2 16 13 2 5 11 35 11 39 0 4 1 4 3 1 2 -2 2 -6 2 -20 0 -14 1 -18 2 -18 2 0 1 38 -2 42 -1 3 -2 4 0 4 0 0 1 1 2 3 1 5 6 20 10 30 5 12 5 12 5 -26 1 -17 1 -31 1 -32 1 -1 -4 -9 -13 -23 -8 -12 -19 -29 -24 -39 -6 -10 -13 -21 -16 -25 -6 -8 -13 -21 -11 -19 1 0 46 69 53 80 2 4 6 10 9 14 10 14 45 86 43 89 -2 1 -5 -3 -7 -11 -5 -15 -28 -61 -30 -61 -1 0 -1 15 -1 34 0 35 0 35 4 38 4 4 4 4 11 0 9 -5 15 -6 17 -3 2 3 1 3 -3 3 -3 0 -17 6 -26 11 -3 1 0 14 5 19 5 5 6 5 17 0 10 -4 19 -7 20 -7 1 2 -8 8 -11 8 -1 0 -5 2 -10 4 -13 6 -17 4 -25 -10 -3 -6 -4 -7 -6 -5 -2 2 -1 4 3 7 11 8 3 6 -8 -2 -7 -5 -9 -5 -15 -6 -8 -1 -16 -3 -23 -8 -7 -4 -2 -4 9 0 5 2 11 3 14 3 2 0 7 1 11 2 7 2 11 2 11 -1 0 -2 2 -6 5 -8 3 -2 3 -2 -2 -6 -3 -3 -10 -10 -15 -17 -6 -7 -12 -13 -15 -14 -2 -2 -5 -5 -6 -7 0 -1 -2 -3 -3 -3 -1 -1 -2 -2 -2 -4 0 -3 -11 -20 -18 -27 0 -1 -3 1 -6 3 -8 5 -17 10 -30 15 -6 3 -13 6 -15 7 -2 1 -6 2 -9 3 -4 0 -5 1 -4 2 1 0 2 1 4 1 2 0 3 0 3 3 0 2 2 5 4 7 5 6 6 8 4 9 -1 2 -2 2 -4 -3 -4 -6 -4 -3 0 5 3 7 4 7 4 3 2 -7 6 -2 6 7 0 3 1 8 2 11 1 4 1 5 0 6 -2 1 -4 -4 -5 -13 -1 -8 -1 -8 -2 -5 -5 8 -2 20 8 31 4 4 7 8 7 8 0 1 0 3 0 5 0 13 33 33 39 23 2 -2 5 -1 5 1 0 1 1 4 3 6 5 6 7 10 8 14 1 4 -1 4 -3 -1 -4 -7 -11 -14 -16 -14 -16 0 -26 46 -12 56 25 18 41 7 39 -26 0 -11 0 -11 4 -19 7 -11 9 -14 14 -17 4 -2 4 -2 0 -4 -5 -3 -9 -3 -17 2 -7 4 -8 4 -13 1 -6 -2 -5 -3 3 -3 4 -1 10 -2 13 -4 7 -3 9 -3 17 0 13 6 23 5 31 -5 9 -11 10 -12 11 -10 0 3 -3 8 -9 13 -3 2 -6 5 -6 5 0 4 4 18 8 31 9 24 10 36 2 40 -10 6 -40 11 -49 9z m12 -4 c3 -1 10 -3 16 -4 22 -3 27 -9 19 -30 -1 -4 -4 -13 -6 -20 -6 -19 -6 -19 -11 -18 -3 1 -8 1 -11 2 -7 0 -7 0 -14 7 -9 9 -10 12 -9 27 0 15 -1 23 -4 27 -4 4 -4 5 -1 5 2 0 5 1 8 3 5 2 6 2 13 1z m-105 -49 c4 -3 3 -5 -2 -8 -5 -3 -7 -8 -7 -15 0 -5 -1 -8 -5 -17 -14 -28 -27 -71 -29 -90 -1 -13 2 -8 6 9 2 5 4 15 6 22 2 6 5 16 6 21 3 8 17 43 20 48 1 1 2 0 6 -2 5 -4 11 -5 12 -3 1 0 -3 3 -9 6 -5 3 -9 6 -9 6 5 13 6 15 8 15 8 0 27 -11 22 -12 -8 -2 -11 -5 -8 -10 2 -5 2 -5 0 -14 -2 -7 -3 -9 -8 -15 -8 -8 -9 -13 -11 -30 0 -7 -1 -10 -2 -12 -1 -1 -4 -6 -7 -12 -4 -9 -5 -10 -10 -13 -3 -2 -6 -5 -8 -7 -5 -6 -8 -6 -24 -6 -7 0 -7 0 -6 4 1 2 3 7 3 12 4 18 18 61 24 77 2 4 6 12 8 17 4 13 9 22 14 27 5 6 6 6 10 2z m26 -29 c-3 -4 -3 -4 -5 -2 -3 3 -2 4 1 5 8 2 9 1 4 -3z m65 -96 c-5 -12 -9 -25 -10 -29 -5 -17 -13 -32 -19 -33 -4 0 -4 0 -4 11 0 6 0 13 -1 16 -1 5 -1 7 0 7 2 0 12 14 20 26 6 11 20 27 22 26 0 -1 -4 -11 -8 -24z m-78 -9 c31 -13 41 -20 38 -27 -2 -2 -2 -3 0 -4 6 -5 0 -31 -8 -33 -13 -4 -25 -9 -31 -13 -3 -3 -3 -3 -3 4 1 10 0 12 -3 9 -1 -2 -2 -4 -2 -6 0 -10 1 -10 -17 -20 -3 -2 -9 -4 -12 -5 -4 -1 -9 -4 -12 -5 -5 -4 -5 -4 -5 1 0 4 -1 4 -2 3 -3 -2 -3 -16 -2 -22 2 -9 2 -23 0 -29 -8 -17 -11 -48 -6 -68 0 -3 0 -3 -6 -8 -4 -2 -10 -8 -15 -12 -11 -11 -13 -11 -28 -11 -14 1 -14 1 -13 7 0 4 1 5 4 7 3 1 6 3 8 7 2 3 7 8 10 12 14 17 13 13 15 50 2 35 5 74 7 78 7 18 36 45 48 45 9 0 22 -10 24 -18 2 -5 2 -6 4 -4 2 3 1 6 -4 12 -3 3 -6 6 -6 7 -1 1 -4 4 -8 6 -4 1 -7 3 -6 3 11 3 13 4 14 6 2 3 1 3 -4 2 -6 -2 -6 -1 -6 4 0 5 -1 8 -3 8 -1 0 -1 -3 -1 -7 0 -7 0 -7 -3 -7 -4 -1 -10 -7 -14 -13 -3 -5 -5 -6 -5 -3 0 8 -4 17 -10 24 -3 4 -6 7 -6 7 0 1 4 1 9 2 9 2 18 6 22 9 6 6 10 7 21 8 2 0 8 -2 17 -6z m45 -65 c11 -12 -2 -22 -26 -20 -21 2 -20 4 14 16 2 1 5 2 6 4 3 2 3 2 6 0z M407 372 c-2 -1 -4 -4 -6 -7 -3 -5 -3 -5 -7 -4 -8 2 -14 -10 -7 -12 2 -1 2 0 1 1 0 3 1 6 4 7 3 2 4 0 2 -4 -1 -3 -1 -4 0 -6 1 -2 1 -2 3 2 5 16 15 25 19 15 2 -6 1 -14 -1 -15 -2 -1 -14 -25 -23 -46 -9 -20 -32 -60 -48 -84 -17 -26 -30 -47 -45 -75 -5 -9 -10 -18 -12 -21 -2 -3 -3 -6 -2 -7 1 -3 2 -2 4 1 1 3 3 4 4 3 0 0 9 2 19 6 10 3 25 7 33 9 7 2 14 5 16 5 3 1 3 8 2 18 -3 15 -5 49 -5 61 1 11 0 12 -2 4 -3 -7 -2 -31 3 -65 0 -7 1 -12 1 -13 -1 0 -9 -2 -20 -5 -23 -6 -40 -12 -45 -16 -3 -2 -3 -2 -1 1 1 2 5 9 9 15 4 7 7 11 8 11 1 0 32 10 33 11 0 0 -1 1 -1 2 -2 2 -2 5 -2 18 0 15 -1 19 -3 11 -1 -4 -1 -7 1 -24 0 -6 0 -6 -4 -7 -9 -1 -19 -4 -22 -7 -4 -3 -2 0 10 20 3 6 9 15 12 21 4 5 9 14 13 20 21 34 34 58 48 86 6 12 10 21 10 21 1 0 3 -1 5 -2 7 -2 22 -1 27 2 8 4 9 17 2 32 -3 5 -8 8 -15 8 -5 0 -5 0 -9 6 -4 6 -4 6 -9 3z m21 -13 c5 -2 7 -5 11 -15 3 -9 3 -11 0 -14 -6 -6 -15 -9 -23 -7 -9 2 -9 2 -4 13 4 8 7 14 8 22 1 4 2 4 8 1z M285 364 c1 -1 11 -5 12 -4 1 0 -1 2 -5 4 -4 1 -9 2 -7 0z M264 362 c-3 -1 -10 -6 -10 -7 0 -1 2 -1 6 -1 6 1 6 0 1 -11 -1 -3 -2 -8 -3 -11 0 -4 -1 -9 -3 -12 -4 -7 -2 -8 3 -1 3 4 4 6 4 10 0 5 10 30 12 30 2 0 4 -4 4 -7 0 -2 1 -4 4 -7 4 -4 4 -4 4 -12 0 -6 1 -8 3 -11 2 -3 5 -4 4 -2 -1 1 -1 6 -2 11 0 9 -3 15 -11 26 -3 4 -11 7 -16 5z M341 352 c-3 -2 -3 -3 1 -3 3 0 3 0 3 3 0 2 -1 3 -4 0z M318 341 c-2 -3 -1 -6 1 -6 1 0 3 4 3 6 -1 2 -4 2 -4 0z M313 328 c1 -4 1 -4 0 -5 -2 -2 -2 -4 -1 -7 2 -3 3 -2 3 1 0 1 1 4 2 5 3 4 3 5 -1 8 -4 4 -5 4 -3 -2z M285 310 c-5 -4 -13 -15 -13 -18 0 -1 3 1 7 6 4 4 9 9 11 10 3 2 4 4 1 5 0 0 -3 -1 -6 -3z M284 155 c-2 -2 -3 -3 -3 -3 0 -1 -3 -5 -6 -9 -4 -4 -8 -9 -9 -11 -6 -7 -12 -7 -30 1 -26 11 -28 9 -3 -3 28 -13 28 -13 45 13 3 5 6 11 7 12 3 4 2 4 -1 0z"/> </g> </svg> 