<svg xmlns="http://www.w3.org/2000/svg" viewBox="0 0 512 512"> <g transform="translate(0.000000,512.000000) scale(1.000000,-1.000000)" fill="#dff3ff" stroke="none"> <path d="M329 475 c-2 -1 -6 -2 -8 -3 -3 -1 -5 -2 -6 -2 -2 0 -10 -5 -13 -8 -9 -8 -8 -39 2 -52 1 -2 2 -5 2 -6 -1 -3 -20 -14 -26 -14 -19 -3 -26 -10 -27 -30 -1 -10 -1 -12 -3 -17 -3 -5 -3 -7 -4 -17 -1 -10 -1 -12 -5 -19 -3 -7 -3 -8 -4 -20 -1 -7 -1 -15 -2 -18 0 -2 0 -5 0 -5 0 -1 -2 -1 -5 -2 -16 -2 -21 -4 -39 -13 -13 -7 -16 -11 -17 -26 0 -7 -1 -11 -5 -20 -6 -15 -8 -26 -8 -48 0 -6 -1 -10 -1 -10 0 0 -3 1 -6 1 -8 2 -11 1 -17 -5 -13 -13 -11 -34 3 -38 5 -1 3 -3 -11 -11 -23 -13 -19 -27 9 -26 13 0 17 1 25 8 6 5 11 7 18 9 5 1 8 3 8 6 0 2 12 -1 14 -3 2 -1 -7 -10 -17 -17 -20 -15 -13 -28 15 -27 12 1 18 3 27 12 9 8 14 11 15 10 1 -1 8 -4 17 -7 36 -11 45 -14 53 -18 8 -3 8 -3 16 1 11 6 14 9 14 12 -1 2 -2 7 -3 11 -1 12 -1 11 -12 15 -25 7 -24 5 -10 17 24 21 37 33 37 35 0 3 -5 1 -19 -11 -31 -26 -36 -31 -35 -33 1 0 -9 1 -11 2 0 1 3 19 4 19 1 0 13 9 17 13 1 0 4 2 7 5 7 5 20 16 20 17 0 6 -8 1 -36 -23 -5 -4 -9 -7 -9 -7 -2 0 7 65 9 67 1 0 6 -1 13 -3 16 -3 17 -3 30 9 20 19 24 26 13 31 -3 2 -3 2 0 5 9 6 16 33 8 30 -1 0 -1 1 -1 2 0 2 0 2 2 1 4 -4 5 0 3 13 -2 9 -2 13 -2 23 1 15 1 15 6 11 7 -6 9 -3 2 4 -9 10 -16 30 -15 42 1 4 -1 3 -6 -2 -8 -10 -18 -13 -34 -8 -14 4 -16 4 -10 -1 10 -8 31 -8 41 -1 2 1 3 2 3 2 1 0 2 -5 3 -10 4 -11 4 -13 -2 -22 -4 -6 -5 -10 -6 -18 -3 -19 -6 -22 -20 -22 -8 0 -8 0 -4 7 2 3 5 9 8 12 7 8 3 9 -6 2 -3 -3 -6 -10 -8 -16 -2 -5 -1 -5 -13 -2 -5 1 -12 3 -17 4 -10 2 -10 3 -6 13 2 7 2 8 -1 15 -3 8 -4 7 3 15 9 11 23 13 29 6 11 -11 12 -13 13 -20 2 -11 6 -13 10 -5 2 2 3 4 4 4 5 0 8 5 5 7 -2 0 -11 -5 -13 -8 -1 -2 -1 -2 -1 3 0 4 0 5 2 5 5 0 16 9 14 11 -1 2 -4 1 -10 -4 -3 -2 -6 -4 -6 -4 -1 0 -10 9 -12 13 -6 8 -29 8 -36 0 -11 -15 -12 -16 -12 -6 0 5 0 11 1 13 1 4 1 6 -1 10 -3 11 -1 20 8 30 7 7 6 10 -2 5 -11 -9 -15 -22 -11 -34 2 -6 2 -6 0 -17 -4 -13 -4 -16 -1 -16 2 0 4 -5 3 -6 0 -1 -1 -3 -2 -5 -4 -26 -10 -34 -23 -34 -5 0 -5 0 -4 5 1 2 1 9 2 16 0 10 1 13 4 21 3 7 3 11 4 19 1 10 1 11 4 17 3 5 3 6 4 18 1 16 5 23 15 25 14 2 22 5 30 11 5 4 5 4 5 -2 0 -6 1 -10 3 -10 2 1 1 14 -1 16 -2 2 -3 5 -1 3 3 -2 13 -2 17 -1 4 2 4 2 0 -6 -5 -10 -4 -10 -3 -11 4 -2 11 10 11 18 0 3 1 5 1 5 0 0 2 2 3 4 2 3 2 3 3 0 1 -8 3 -12 7 -15 7 -6 16 -12 21 -16 13 -8 14 -11 14 -25 1 -11 1 -12 4 -19 9 -19 6 -60 -7 -95 -4 -11 -4 -14 0 -22 4 -10 2 -20 -6 -23 -2 -1 -6 -2 -7 -3 -3 -1 -4 -1 -8 0 -4 3 -5 1 -2 -3 4 -5 10 -5 21 1 10 5 14 17 9 30 -4 8 -3 11 6 37 3 6 6 36 6 42 -1 2 -1 10 -2 18 -1 10 -1 14 -3 19 -3 5 -3 8 -4 19 -1 13 -1 14 -6 20 -3 3 -3 3 -1 20 4 20 7 38 8 45 4 19 -2 30 -17 33 -6 1 -41 2 -46 1z m35 -3 c6 -1 2 -1 -12 0 -12 0 -22 0 -22 1 -1 0 25 0 34 -1z m15 -7 c8 -4 8 -20 2 -47 -1 -3 -3 -12 -4 -19 -3 -18 -2 -17 -11 -10 -3 3 -8 7 -11 9 -8 5 -11 16 -8 31 4 19 1 31 -8 36 -2 1 -3 2 -3 2 0 1 41 0 43 -2z m-47 -2 c22 -7 11 -58 -12 -58 -17 0 -27 44 -13 55 6 4 17 6 25 3z m32 -160 c-1 -3 -1 -12 -2 -20 0 -16 -3 -40 -6 -44 -2 -3 -3 -2 -2 2 0 2 -1 9 -1 16 -2 14 0 26 6 40 1 4 3 8 4 11 2 5 2 3 1 -5z m-86 -5 c1 -5 1 -7 0 -8 0 -1 -2 -5 -2 -9 -1 -6 -2 -7 -4 -6 -1 0 -2 0 -2 0 0 1 1 5 2 11 1 5 2 11 2 13 -1 9 1 9 4 -1z m-3 -29 c32 -9 63 -12 70 -8 3 2 4 2 2 -4 -1 -3 -1 -5 0 -7 1 -3 2 -7 1 -19 -1 -19 -2 -24 -8 -27 -1 -1 -3 -3 -4 -4 -2 -8 10 -1 14 7 2 6 2 6 4 4 4 -3 2 -7 -9 -17 -14 -14 -15 -14 -39 -8 -20 5 -23 5 -23 3 0 -2 1 -3 8 -5 11 -4 11 -4 8 -5 -1 0 -2 -1 -3 -7 -1 -8 -5 -26 -7 -36 0 -4 -1 -8 -1 -9 0 -2 -6 -4 -7 -2 0 0 0 1 1 3 1 3 5 25 9 48 0 3 -2 5 -3 3 -1 -1 -2 -7 -3 -12 -1 -6 -2 -11 -3 -11 0 1 1 6 2 11 1 11 1 14 -1 14 -2 0 -3 -4 -8 -29 -5 -34 -7 -40 -11 -43 -3 -2 -3 -2 -3 2 -1 2 -2 5 -4 6 -3 4 -3 6 7 22 11 18 13 24 14 42 1 14 2 16 12 14 36 -7 48 -2 48 20 1 22 -15 39 -35 38 -5 0 -8 1 -8 1 0 3 -19 10 -21 8 -3 -2 6 -8 11 -8 7 0 6 -1 -1 -3 -4 -1 -10 -3 -13 -5 -3 -1 -6 -3 -6 -3 -1 0 -1 0 -1 1 1 2 -4 9 -8 12 -4 3 -3 4 4 4 1 1 2 1 2 1 1 0 3 5 4 8 1 2 0 2 9 0z m-27 -14 c3 -2 7 -5 10 -8 5 -6 5 -6 -1 -9 -5 -2 -9 -6 -11 -10 -1 -2 -2 -2 -6 -1 -8 2 -16 -4 -16 -13 0 -3 0 -3 -4 -3 -19 4 -20 3 -23 -27 -1 -9 -1 -11 -6 -20 -5 -11 -9 -22 -9 -24 1 -1 1 -1 -9 1 -6 2 -8 3 -8 4 1 1 1 6 1 11 2 22 3 29 10 48 1 6 3 13 3 15 0 11 4 19 11 22 2 2 5 4 8 5 13 9 42 14 50 9z m67 -10 c15 -8 23 -27 17 -39 -3 -6 -7 -7 -24 -6 -34 2 -34 2 -36 -19 -1 -19 -2 -21 -14 -41 -7 -14 -8 -16 -7 -18 1 -1 -11 2 -20 5 -1 0 -1 1 0 3 2 2 3 7 5 32 2 9 3 14 6 23 4 9 4 12 5 23 1 19 4 23 27 33 17 9 31 10 41 4z m44 -14 c-1 -6 -6 -9 -6 -4 0 3 1 4 3 5 4 1 4 1 3 -1z m-119 -9 c2 0 2 -1 1 -8 0 -10 0 -10 -6 -8 -6 2 -8 5 -5 12 3 4 5 6 10 4z m-24 -16 c5 0 9 -1 9 -1 3 2 1 -9 -9 -50 -2 -7 -3 -15 -4 -18 0 -5 0 -5 -2 -5 -2 1 -7 2 -14 4 -11 2 -11 2 -9 5 0 1 1 3 1 4 0 0 3 6 6 14 8 14 9 19 9 33 0 9 2 16 5 16 0 0 4 -1 8 -2z m25 -6 c0 -1 -2 -7 -4 -14 -5 -14 -6 -19 -8 -38 -2 -16 -3 -20 -5 -20 -1 1 -3 1 -5 2 -4 0 -4 0 -1 10 1 4 3 10 3 14 12 52 10 47 15 46 3 0 5 0 5 0z m-71 -63 c18 -5 67 -17 71 -19 2 0 2 0 -1 -4 -5 -5 -7 -13 -7 -23 1 -6 0 -7 -1 -7 -1 1 -4 1 -6 2 -6 1 -50 14 -71 20 -19 5 -22 8 -19 21 4 15 8 16 34 10z m113 -18 c5 0 5 0 4 -5 0 -3 -1 -10 -2 -15 -1 -9 -1 -9 -4 -10 -13 -2 1 -9 42 -19 9 -2 10 -2 10 -12 1 -6 1 -6 -6 -10 -7 -3 -9 -4 -10 -2 -1 0 -7 3 -14 5 -8 2 -19 6 -25 8 -20 6 -29 9 -32 8 -1 -1 -1 -1 1 2 2 3 2 5 2 7 -1 2 -1 3 0 3 0 0 2 1 3 3 3 2 3 2 4 -2 2 -8 22 -9 22 -1 0 4 -1 4 -4 2 -4 -4 -12 -1 -12 4 0 10 2 16 6 19 1 2 3 4 3 5 0 1 0 1 1 1 0 -1 -1 -6 -1 -12 -2 -15 -2 -15 0 -15 3 1 3 2 5 20 2 12 2 16 -1 15 -1 -1 -1 0 -1 2 0 2 0 2 2 1 1 -2 4 -2 7 -2z m-31 -5 c1 0 0 -1 -2 -2 -8 -3 -12 -19 -7 -26 2 -3 2 -3 -1 -3 -8 1 -6 23 3 30 2 2 6 3 7 1z m4 -10 c2 -5 -3 -16 -7 -16 -5 0 -4 13 1 18 3 3 5 2 6 -2z m-76 -11 c6 -2 6 -2 -5 -6 -4 -1 -8 -3 -13 -7 -8 -6 -12 -7 -24 -7 -19 -1 -22 7 -6 15 8 3 17 11 17 13 -1 1 15 -3 31 -8z m107 -7 c1 0 3 -1 5 -2 2 0 4 0 4 -1 -1 0 -4 0 -8 1 -5 1 -7 2 -5 2 4 1 4 1 4 0z m-58 -7 c5 -1 10 -2 12 -2 5 0 2 -5 -5 -9 -3 -2 -8 -6 -12 -10 -9 -8 -18 -10 -32 -9 -14 2 -14 6 -1 17 9 8 18 16 17 19 0 1 2 0 6 -1 4 -1 10 -3 15 -5z M376 455 c-1 -2 -3 -13 -6 -33 -1 -6 -2 -12 -3 -13 -1 -3 2 -6 4 -3 2 3 9 41 9 47 0 3 -2 4 -4 2z M201 240 c-1 0 -1 -3 -1 -5 0 -4 -1 -7 -2 -9 -6 -9 -3 -10 3 -3 6 6 6 9 3 15 -2 3 -2 3 -3 2z M312 230 c-9 -3 -16 -7 -16 -9 0 -1 0 -2 15 2 13 4 15 5 13 8 -2 1 -3 1 -12 -1z M273 228 c-1 0 -1 -1 -1 -2 0 -2 -3 -9 -8 -15 -3 -5 -3 -7 -1 -8 3 -1 14 15 14 20 0 4 -3 7 -4 5z M287 385 c-1 -3 4 -5 14 -7 2 0 5 -1 7 -3 5 -4 7 -1 2 4 -4 4 -6 5 -12 5 -4 1 -7 1 -8 2 -1 0 -2 0 -3 -1z M353 382 c-6 -2 -7 -2 -12 -1 -8 2 -14 1 -17 -1 -10 -6 -10 -10 -1 -6 4 2 7 3 9 3 1 -1 5 -1 9 -2 9 -2 24 4 21 8 -1 1 -1 1 -9 -1z M302 340 c-2 0 -6 -1 -9 -1 -8 0 -11 -1 -12 -3 -1 -4 17 -4 23 1 5 4 4 6 -2 3z M299 319 c0 -2 -1 -10 -2 -19 -1 -9 -2 -18 -2 -20 -2 -5 -2 -7 1 -7 3 0 6 13 6 33 1 16 0 19 -3 13z M251 311 c-2 -2 3 -16 5 -16 2 1 2 11 0 14 -2 3 -4 4 -5 2z"/> </g> </svg> 